PathFileType	4	(X/Y/Z)	D:\TRACE\v60_Jaco2_6-2-23\BothDRS_Motion1_10-v60.trc
DataRate	CameraRate	NumFrames	NumMarkers	Units	OrigDataRate	OrigDataStartFrame	OrigNumFrames
100.00	100.00	      24	9	mm	100.00	1876	      7500
Frame#	Time	front left toe			Front right toe			aft left toe			aft right toe			Arm			FL body			FR body			AL Body			AR Body			
		X1	Y1	Z1	X2	Y2	Z2	X3	Y3	Z3	X4	Y4	Z4	X5	Y5	Z5	X6	Y6	Z6	X7	Y7	Z7	X8	Y8	Z8	X9	Y9	Z9	

1876	18.750	-151.31729	14.29745	-223.02269	248.65160	71.06405	-264.39566	-73.22334	83.73695	392.77060	270.33313	20.16010	377.48148	64.24339	1154.33997	-622.11462	-40.82246	565.57758	-368.96503	118.69965	559.01379	-382.02606	38.77668	580.10944	572.72827	196.61116	570.75830	563.94940	
1877	18.760	-151.82611	14.39815	-222.85625	249.86632	62.54863	-266.52191	-70.13319	76.19476	390.49393	270.03928	19.97087	377.53702	64.01378	1154.63293	-622.36035	-40.61147	565.57269	-369.64651	119.21482	559.24377	-383.29221	40.13641	579.84155	572.12573	198.05563	570.51459	563.43378	
1878	18.770	-152.29454	14.46662	-222.79445	250.73563	54.03570	-268.63150	-67.13601	66.28751	389.26968	269.52667	19.61866	377.55273	63.47992	1155.01294	-622.60815	-40.45212	565.67822	-370.10245	119.41371	559.46887	-383.98972	41.31890	579.48077	571.37775	199.32137	570.28802	562.38983	
1879	18.780	-152.77730	14.66206	-222.68394	251.61276	46.04967	-270.81512	-67.15829	57.65926	387.82285	268.72665	19.06737	377.47174	62.54475	1155.47278	-623.11456	-40.58272	565.94421	-370.58978	118.66401	559.74365	-384.79242	42.47519	578.81104	570.47528	200.55431	569.64172	561.07520	
1880	18.790	-153.17615	14.74967	-222.49019	252.52289	38.27282	-272.63098	-66.14808	48.68352	386.70261	268.17538	18.75198	377.35886	61.59787	1155.96936	-623.27148	-40.19361	566.14569	-371.29990	118.83421	560.04486	-385.65668	43.90585	577.95288	569.69153	201.75551	568.83203	560.27704	
1881	18.800	-154.08960	15.01627	-222.44789	253.18056	31.33427	-274.55161	-65.21017	41.30767	384.86145	267.92819	18.56421	377.23962	60.49403	1156.34363	-623.56299	-40.50224	566.31848	-372.29959	119.41953	560.46497	-387.10620	45.06190	577.26178	568.78278	203.05127	568.16205	559.12494	
1882	18.810	-154.81276	15.22611	-222.27254	253.76360	25.18515	-276.82895	-63.92955	34.97554	382.84927	267.35059	18.25314	377.22537	59.28778	1157.01624	-624.02887	-40.31560	566.80280	-373.30487	118.73719	560.68378	-387.30774	46.54983	576.42664	567.74341	201.22360	564.76843	553.47858	
1883	18.820	-155.31161	15.58196	-222.27509	254.39420	19.15972	-279.38553	-62.32093	28.68919	380.58279	266.59744	18.01473	377.35464	58.59779	1157.86975	-624.36395	-39.93863	566.86688	-373.99792	119.31397	561.31750	-389.55338	47.96769	575.83997	566.57001	202.43854	564.62793	552.92761	
1884	18.830	-155.64500	15.58470	-222.17802	254.09793	17.48882	-281.91525	-61.28697	22.05682	377.74860	265.79721	17.70245	377.27524	57.77983	1158.82324	-624.89117	-40.62037	567.48566	-375.42142	118.72294	561.67072	-390.74008	49.30187	575.05750	565.43927	203.71971	563.78357	550.51233	
1885	18.840	-156.06866	15.77032	-222.10936	253.64914	14.95612	-282.09344	-60.78038	16.10714	375.00183	265.32803	17.15819	377.24451	57.27022	1159.75635	-625.66370	-40.39123	567.89178	-376.31876	118.44858	562.52960	-391.51688	50.34610	574.43665	564.12701	205.26183	563.04175	549.00952	
1886	18.850	-156.82669	16.29181	-222.34157	253.23311	15.09331	-282.26273	-62.36710	15.69769	373.29135	264.89978	16.90903	377.04663	56.98208	1160.64587	-626.22192	-40.91495	568.86285	-377.40823	118.93777	563.93756	-393.69525	51.87626	574.10376	562.89313	211.69324	565.27295	550.50366	
1887	18.860	-157.31108	17.17519	-222.75092	252.72865	15.15439	-282.09207	-63.44963	14.73314	375.02338	264.14456	17.36310	376.37469	55.71690	1161.89832	-626.76282	-41.38456	569.81696	-378.38211	117.81139	564.67841	-394.73581	53.39370	575.62244	561.87555	212.56354	566.21979	548.99255	
1888	18.870	-156.06053	19.71242	-222.39732	251.78542	14.74978	-282.31345	-63.52332	15.92967	375.17145	262.86252	19.27757	376.54495	54.05671	1163.30212	-627.75037	-41.76322	570.51794	-379.07111	117.61617	565.45673	-395.30670	54.94396	576.96228	561.06659	212.59492	568.23358	549.67133	
1889	18.880	-152.94594	22.02601	-220.73163	250.79126	14.87206	-282.61163	-64.16814	14.72150	374.68082	260.70087	22.10402	378.69720	52.17529	1164.68262	-629.22247	-41.97692	571.84595	-379.58499	117.48326	566.99982	-396.49243	55.87788	577.68866	560.23541	215.37485	568.72150	547.02930	
1890	18.890	-147.77922	27.59548	-218.54037	250.18913	15.04358	-282.44443	-64.57982	15.27534	375.15448	259.23816	28.39089	380.47299	50.06356	1165.40820	-630.21448	-42.73521	572.58490	-380.32278	117.10725	567.77173	-397.34097	56.89556	578.13776	559.42529	214.78780	569.54614	547.62927	
1891	18.900	-145.55496	36.07061	-219.35625	249.67410	15.22351	-282.39514	-65.30928	14.87368	375.16446	257.92255	36.34449	379.86221	48.63950	1165.38123	-630.43109	-42.80872	573.09833	-380.86118	116.67214	568.53619	-398.90094	57.85009	578.28992	558.79437	215.50157	569.89520	546.61713	
1892	18.910	-144.44817	46.03962	-220.07578	248.68959	15.30421	-282.35052	-66.03507	14.16015	374.94501	258.06125	47.09766	378.62094	47.95710	1165.64856	-630.41187	-42.80360	573.40497	-381.44394	116.19659	568.52789	-398.59250	58.49674	578.43732	558.00586	216.14716	569.85059	545.92773	
1893	18.920	-146.23918	57.53635	-222.40407	248.01578	15.21615	-282.33786	-66.78160	14.60040	375.27686	259.13092	57.30904	375.20569	47.35558	1166.29041	-631.02588	-43.28415	573.72498	-382.15793	115.74028	568.74701	-399.08392	58.78033	578.05963	557.37622	213.15536	567.64160	541.75903	
1894	18.930	-148.18271	69.33430	-224.25354	247.29152	15.10222	-282.19412	-67.51102	14.06425	375.46326	264.03473	69.60657	371.98398	47.13892	1166.83289	-631.20349	-43.43230	573.81927	-382.53131	115.49802	569.18274	-400.09613	58.73278	577.50116	556.82996	213.60327	567.25299	540.95941	
1895	18.940	-148.53331	81.21139	-226.20238	246.48077	15.10250	-282.12982	-68.25304	13.60241	375.35114	267.52777	79.91383	368.38879	47.03951	1167.27844	-631.10944	-43.69618	573.88434	-382.97952	115.89838	569.46570	-400.72131	58.61012	576.76373	556.53290	213.25514	566.33710	540.36133	
1896	18.950	-148.23210	92.25508	-228.04250	245.79308	15.05087	-282.13226	-69.56744	13.36122	375.36609	272.24408	90.99185	365.04129	46.99417	1167.38000	-630.79346	-43.66316	573.86304	-383.22104	115.97269	569.55737	-401.02106	58.49419	575.98370	556.23566	213.23010	565.82141	540.30310	
1897	18.960	-147.21101	103.43640	-229.76453	245.09787	15.05830	-282.09601	-70.19247	12.97905	375.63406	274.89850	100.79219	361.71875	47.04619	1167.59814	-630.42023	-43.94543	573.86853	-383.51041	115.51891	569.71838	-401.33136	58.41735	575.16376	555.93646	211.76067	565.01587	539.87244	
1898	18.970	-145.65340	113.93199	-231.43022	244.40942	15.25049	-281.88467	-70.97393	12.74732	375.60028	278.52908	112.17907	358.99658	46.71547	1168.35242	-630.19733	-44.54393	574.24829	-383.80716	114.99450	569.93854	-401.57382	58.41702	574.77734	555.56146	153.41679	587.79010	555.72064	
1899	18.980	-144.84546	123.91002	-232.90659	243.66750	15.52525	-281.80191	-72.15987	12.78426	375.73215	281.05634	122.56995	356.77646	46.60727	1168.90222	-629.80859	-44.63477	574.54034	-383.90402	114.63579	570.16168	-401.63672	58.42505	574.50085	555.37128	213.00786	563.94562	538.60077	
